<?xml version="1.0" encoding="UTF-8"?>
<svg version="1.1" xmlns="http://www.w3.org/2000/svg" width="1536" height="1024">
<path d="M0 0 C506.88 0 1013.76 0 1536 0 C1536 337.92 1536 675.84 1536 1024 C1029.12 1024 522.24 1024 0 1024 C0 686.08 0 348.16 0 0 Z " fill="#F8F6FC" transform="translate(0,0)"/>
<path d="M0 0 C0 0.66 0 1.32 0 2 C0.59369385 2.27674561 1.1873877 2.55349121 1.79907227 2.83862305 C3.87143166 3.93215756 5.44540766 5.05982176 7.21484375 6.58203125 C7.81248535 7.09531982 8.41012695 7.6086084 9.02587891 8.13745117 C9.65671387 8.69021729 10.28754883 9.2429834 10.9375 9.8125 C11.59411621 10.38782471 12.25073242 10.96314941 12.92724609 11.5559082 C36.67854578 32.56755232 36.67854578 32.56755232 37.68237305 45.83862305 C38.00267163 55.77944229 34.92030499 61.70433713 28.22705078 68.90820312 C22.4013275 75.03811537 16.40083493 80.96445323 9.98828125 86.48046875 C6.50969419 89.48881574 3.30582997 92.68957136 0.1171875 96.00097656 C-12.56300487 109.12248935 -24.90007931 115.88144616 -43.45669556 116.42328262 C-48.05564581 116.47735036 -52.65119687 116.4420036 -57.25 116.390625 C-59.24494859 116.3831443 -61.23990464 116.37746005 -63.23486328 116.37347412 C-68.42986123 116.35836155 -73.62439612 116.31920757 -78.81921387 116.2746582 C-84.14243307 116.23339135 -89.4657287 116.2153967 -94.7890625 116.1953125 C-105.19290934 116.15269624 -115.59641584 116.08462411 -126 116 C-126 113 -126 113 -124.55212402 111.47570801 C-123.55469177 110.66885559 -123.55469177 110.66885559 -122.53710938 109.84570312 C-117.8999296 105.95686612 -113.65964913 101.76965768 -109.40625 97.46875 C-108.61528931 96.67400269 -107.82432861 95.87925537 -107.00939941 95.0604248 C-104.50380477 92.54271568 -102.00149142 90.02178554 -99.5 87.5 C-96.2008832 84.17411811 -92.89835626 80.85167664 -89.59375 77.53125 C-88.85080688 76.78000854 -88.10786377 76.02876709 -87.34240723 75.25476074 C-83.99547848 71.89235531 -80.62358519 68.62306477 -77.02734375 65.52734375 C-72.44919061 61.58238428 -68.21772914 57.32504913 -63.96875 53.03125 C-63.13339722 52.1921106 -62.29804443 51.35297119 -61.43737793 50.48840332 C-58.78912914 47.828031 -56.14415594 45.16443987 -53.5 42.5 C-50.01337399 38.98662727 -46.52335074 35.47668029 -43.03125 31.96875 C-42.24455933 31.17376099 -41.45786865 30.37877197 -40.64733887 29.55969238 C-36.46912863 25.36318699 -32.19808389 21.36630532 -27.70928955 17.50448608 C-25.68678404 15.72431291 -23.86243593 13.82711249 -22.0703125 11.81640625 C-21.41933594 11.11708984 -20.76835937 10.41777344 -20.09765625 9.69726562 C-18.77241855 8.26312225 -17.46520417 6.812131 -16.17578125 5.34570312 C-11.05634762 -0.06150932 -7.35645883 -1.02839328 0 0 Z " fill="#6457E7" transform="translate(458,453)"/>
<path d="M0 0 C1.50288197 0.00306822 3.00576681 0.00493624 4.50865173 0.00567627 C7.65993159 0.01026727 10.81095426 0.02462377 13.9621582 0.046875 C17.92880312 0.07479427 21.89524522 0.08597484 25.86197853 0.09067535 C43.16885385 0.11342359 60.43014343 0.36493947 77.71484375 1.328125 C77.05484375 2.648125 76.39484375 3.968125 75.71484375 5.328125 C74.72484375 5.328125 73.73484375 5.328125 72.71484375 5.328125 C72.49183594 5.87984375 72.26882813 6.4315625 72.0390625 7 C70.29930278 10.0586926 68.05719893 12.1355062 65.52734375 14.578125 C62.38780208 17.61667442 59.39847667 20.65563633 56.55949402 23.97610474 C52.61322648 28.5060242 48.42899687 32.76175752 44.1809082 37.00732422 C43.35725769 37.83433334 42.53360718 38.66134247 41.68499756 39.51341248 C38.98533131 42.22251158 36.28197207 44.92788653 33.578125 47.6328125 C32.16907576 49.04426385 30.7600275 50.45571618 29.35110444 51.86729348 C24.93333346 56.29316816 20.51275767 60.71622786 16.09057617 65.13769531 C11.53422301 69.69344555 6.98350262 74.25476978 2.43532974 78.81868541 C-1.48144384 82.74853041 -5.40205893 86.67451463 -9.32569343 90.5975095 C-11.66431123 92.93587263 -14.00089035 95.27621003 -16.33453941 97.61953354 C-18.93145302 100.22621182 -21.53458613 102.82651694 -24.1394043 105.42529297 C-24.90883865 106.20034683 -25.67827301 106.9754007 -26.47102356 107.77394104 C-27.53690201 108.83352776 -27.53690201 108.83352776 -28.62431335 109.91452026 C-29.23835368 110.52910536 -29.85239401 111.14369045 -30.48504162 111.77689934 C-33.31387641 114.21461138 -35.77237414 115.21531294 -39.41015625 116.015625 C-45.58354815 114.92034579 -48.92645589 110.61785859 -53.28515625 106.328125 C-54.58763978 105.17091848 -55.89942488 104.02404859 -57.22265625 102.890625 C-58.17591797 102.05337891 -58.17591797 102.05337891 -59.1484375 101.19921875 C-60.76240547 99.78589031 -62.38661355 98.38424385 -64.015625 96.98828125 C-71.97789511 90.01457909 -79.50780437 82.6725116 -80.53515625 71.64453125 C-80.92972332 61.9653077 -78.87397588 54.97194767 -72.47265625 47.640625 C-70.76030599 45.84889427 -69.0337224 44.08354827 -67.28515625 42.328125 C-66.07144622 41.08870651 -64.85791677 39.84911118 -63.64453125 38.609375 C-57.99041264 32.86859779 -52.33937013 27.17651228 -46.16015625 21.99609375 C-43.79726976 19.89410931 -41.65860165 17.61312105 -39.47265625 15.328125 C-27.63422381 3.38058259 -16.34629577 -0.14728932 0 0 Z " fill="#744AD5" transform="translate(395.28515625,401.671875)"/>
<path d="M0 0 C7.79625 -0.061875 15.5925 -0.12375 23.625 -0.1875 C27.27103271 -0.22846802 27.27103271 -0.22846802 30.99072266 -0.27026367 C63.03806134 -0.47993789 63.03806134 -0.47993789 72.7421875 8.63671875 C78.58208831 15.0773749 79.58721548 20.85567235 79.43359375 29.4765625 C78.77636352 34.81729823 76.95854813 38.36133455 73 42 C70.10048962 43.73027693 67.21428962 44.97857019 64 46 C64.79664063 46.3403125 65.59328125 46.680625 66.4140625 47.03125 C73.39025331 50.22230565 78.37484594 53.08187731 82 60 C82.875 62.5 82.875 62.5 83 65 C83.103125 66.216875 83.20625 67.43375 83.3125 68.6875 C83.16707329 75.69442315 80.55172438 81.94906388 75.5625 86.875 C65.40864515 94.93723681 51.51438863 95.15698198 39.16015625 95.09765625 C37.66687805 95.09614563 37.66687805 95.09614563 36.14343262 95.09460449 C32.44977658 95.08940038 28.75613704 95.07543924 25.0625 95.0625 C16.791875 95.041875 8.52125 95.02125 0 95 C0 63.65 0 32.3 0 0 Z " fill="#2B2A4F" transform="translate(855,435)"/>
<path d="M0 0 C9.054375 -0.061875 18.10875 -0.12375 27.4375 -0.1875 C30.27915771 -0.21481201 33.12081543 -0.24212402 36.04858398 -0.27026367 C38.32274959 -0.27903264 40.59691994 -0.28667561 42.87109375 -0.29296875 C44.03419067 -0.30831665 45.1972876 -0.32366455 46.39562988 -0.33947754 C57.02463317 -0.34287014 65.8754486 1.86337046 74 9 C79.82340212 15.04861657 81.67429884 20.92151786 81.75 29.125 C81.58517922 36.0969189 80.63563391 41.5469999 76 47 C75.45730469 47.65355469 74.91460938 48.30710937 74.35546875 48.98046875 C70.64650565 53.04107169 67.2200434 55.29344735 62 57 C61.01 57 60.02 57 59 57 C59.33620361 57.46148437 59.67240723 57.92296875 60.01879883 58.3984375 C66.17353814 66.85689438 72.29665121 75.33565754 78.25 83.9375 C78.71510986 84.60458984 79.18021973 85.27167969 79.65942383 85.95898438 C81.49137306 88.62238065 82.97207251 90.91621753 84 94 C64.38230814 95.7943776 64.38230814 95.7943776 59.26171875 91.9375 C57.5351072 89.03646292 56.2823553 86.12039791 55 83 C53.71850542 81.13006403 52.38366267 79.29565211 51 77.5 C40 62.56835938 40 62.56835938 40 59 C33.07 59 26.14 59 19 59 C19 70.55 19 82.1 19 94 C12.73 94 6.46 94 0 94 C0 62.98 0 31.96 0 0 Z " fill="#28264D" transform="translate(564,436)"/>
<path d="M0 0 C0.92039062 -0.01998047 1.84078125 -0.03996094 2.7890625 -0.06054688 C11.97376768 -0.05407877 19.48245886 2.67956013 26.52734375 8.58203125 C31.6426914 15.02709792 31.40381433 21.61207151 31.29296875 29.49609375 C31.28872391 30.64038345 31.28447906 31.78467316 31.28010559 32.96363831 C31.26337804 36.60100311 31.22573565 40.23780402 31.1875 43.875 C31.17244556 46.34829926 31.15875848 48.82160725 31.14648438 51.29492188 C31.11349373 57.34266358 31.06175133 63.38998634 31 69.4375 C25.39 69.4375 19.78 69.4375 14 69.4375 C13.505 65.9725 13.505 65.9725 13 62.4375 C12.39671875 62.84742188 11.7934375 63.25734375 11.171875 63.6796875 C10.37265625 64.21851563 9.5734375 64.75734375 8.75 65.3125 C7.96109375 65.84617187 7.1721875 66.37984375 6.359375 66.9296875 C0.93787611 70.39442024 -2.90155111 70.80271811 -9.25 70.8125 C-10.07113281 70.83699219 -10.89226563 70.86148438 -11.73828125 70.88671875 C-18.64618406 70.91956139 -23.83966147 69.226034 -29.05859375 64.62109375 C-29.74115234 63.75677734 -29.74115234 63.75677734 -30.4375 62.875 C-30.91058594 62.29621094 -31.38367188 61.71742188 -31.87109375 61.12109375 C-35.29289342 56.01799458 -34.58860117 49.28888815 -34 43.4375 C-31.96764961 37.20165416 -27.85951455 34.24955683 -22.18359375 31.34765625 C-17.73054114 29.49155382 -13.87743144 29.31937529 -9.046875 29.33984375 C-8.38665344 29.3412587 -7.72643188 29.34267365 -7.04620361 29.34413147 C-4.94742206 29.34970755 -2.84874905 29.36225553 -0.75 29.375 C0.67708179 29.3800181 2.10416525 29.38458046 3.53125 29.38867188 C7.02086832 29.39966912 10.51042356 29.4169172 14 29.4375 C13.71531708 27.98793144 13.42037094 26.54037591 13.12109375 25.09375 C12.95794678 24.28744141 12.7947998 23.48113281 12.62670898 22.65039062 C11.78513412 19.67881503 10.47737304 18.23922585 8 16.4375 C-0.49908262 13.60447246 -9.62042689 15.04099408 -17.6953125 18.46484375 C-19.79351675 19.35035707 -21.7802206 19.95160359 -24 20.4375 C-25.17232685 18.8165787 -26.3377077 17.19063167 -27.5 15.5625 C-28.1496875 14.65757812 -28.799375 13.75265625 -29.46875 12.8203125 C-31 10.4375 -31 10.4375 -31 8.4375 C-29.54754505 7.65564659 -28.08756083 6.88778172 -26.625 6.125 C-25.81289063 5.69574219 -25.00078125 5.26648438 -24.1640625 4.82421875 C-16.10783899 1.29340474 -8.77720073 -0.06761149 0 0 Z " fill="#29284E" transform="translate(983,460.5625)"/>
<path d="M0 0 C5.94 0 11.88 0 18 0 C18 19.14 18 38.28 18 58 C22.72176244 53.86845787 27.39684605 49.75291398 32 45.5 C36.07147889 41.74746114 40.18107847 38.04853465 44.37890625 34.4375 C46.02503575 33.05765903 46.02503575 33.05765903 47.26855469 31.4284668 C49.66764616 29.4491825 51.24516027 29.65599713 54.32421875 29.70703125 C55.35224609 29.71669922 56.38027344 29.72636719 57.43945312 29.73632812 C59.04723633 29.7740332 59.04723633 29.7740332 60.6875 29.8125 C61.77095703 29.82603516 62.85441406 29.83957031 63.97070312 29.85351562 C66.64763405 29.88889357 69.32356838 29.93825811 72 30 C65.4634979 37.74574121 58.49292147 44.82257338 50.796875 51.42578125 C48.41401353 53.51337511 46.20473601 55.72636599 44 58 C45.36266644 62.03805866 47.1409151 64.54368118 50.0625 67.625 C54.10590886 71.99136484 57.91066672 76.4839927 61.6484375 81.11328125 C63.34278332 83.1932174 65.0513036 85.25005699 66.7890625 87.29296875 C67.25127197 87.83840332 67.71348145 88.38383789 68.18969727 88.94580078 C69.49973416 90.48858298 70.81421065 92.02759207 72.12890625 93.56640625 C74 96 74 96 74 98 C54.54543337 99.63125236 54.54543337 99.63125236 49.07421875 96.125 C47.10862245 93.52048317 45.57856138 90.85310354 44 88 C42.50180712 86.25341563 40.95880268 84.54434357 39.375 82.875 C35.62827781 78.77113791 32.22281998 74.52458648 29 70 C28.45730469 70.42152344 27.91460938 70.84304688 27.35546875 71.27734375 C26.64003906 71.82519531 25.92460938 72.37304688 25.1875 72.9375 C24.47980469 73.48277344 23.77210938 74.02804687 23.04296875 74.58984375 C21 76 21 76 18 77 C18 83.93 18 90.86 18 98 C12.06 98 6.12 98 0 98 C0 65.66 0 33.32 0 0 Z " fill="#29274E" transform="translate(769,432)"/>
<path d="M0 0 C1.25055176 0.01027222 1.25055176 0.01027222 2.52636719 0.02075195 C8.60901182 0.18003659 13.3643156 1.00618559 18.5 4.4375 C19.42619141 4.9634375 19.42619141 4.9634375 20.37109375 5.5 C26.66899117 9.40063324 30.32493908 15.28620026 32.875 22.125 C33.75102473 28.16957063 33.5 34.32977919 33.5 40.4375 C16.67 40.4375 -0.16 40.4375 -17.5 40.4375 C-15.15035295 48.8205768 -15.15035295 48.8205768 -8.8125 54.046875 C-2.20313522 56.82156116 5.86615956 56.75889652 12.59375 54.3125 C14.27533037 53.44203487 15.93198308 52.51995934 17.546875 51.53125 C19.5 50.4375 19.5 50.4375 22.5 50.4375 C24.54296875 52.625 24.54296875 52.625 26.6875 55.4375 C27.76064453 56.8296875 27.76064453 56.8296875 28.85546875 58.25 C29.39816406 58.971875 29.94085937 59.69375 30.5 60.4375 C26.01762613 66.24798465 19.61193214 69.05057824 12.5 70.4375 C8.76686305 70.83978981 5.06576646 70.96560689 1.3125 71 C0.39863525 71.01458252 -0.51522949 71.02916504 -1.45678711 71.04418945 C-11.38750651 70.89663712 -20.30929049 67.36023275 -27.5 60.4375 C-33.26318279 53.96954929 -35.83224634 48.04410276 -36.5 39.4375 C-36.56960938 38.6021875 -36.63921875 37.766875 -36.7109375 36.90625 C-37.10996837 27.20673032 -34.78700931 18.86871217 -28.44921875 11.44140625 C-20.30900912 3.07281398 -11.61539898 -0.14713466 0 0 Z " fill="#2C2A50" transform="translate(1134.5,460.5625)"/>
<path d="M0 0 C2.23896688 1.18985097 4.01705955 2.4026313 6 4 C5.36934243 7.21852831 4.21979305 9.50801069 2.4375 12.25 C1.98246094 12.95640625 1.52742187 13.6628125 1.05859375 14.390625 C0.53458984 15.18726563 0.53458984 15.18726563 0 16 C-3.01340738 15.55685186 -5.20362576 14.89602089 -7.9375 13.5 C-14.00357407 10.52886168 -21.32977214 10.15362668 -28 11 C-30.3510313 12.19723599 -30.3510313 12.19723599 -32 14 C-32.33397787 17.12586875 -32.33397787 17.12586875 -32 20 C-28.77728557 22.02276757 -25.58391476 22.44354079 -21.85644531 22.93652344 C-10.66147127 24.42578439 -0.33231216 27.0602803 7.01171875 36.2890625 C9.5746042 40.72599463 9.69637992 46.02702807 9 51 C6.49227081 57.74028674 1.31305586 61.87334457 -5 65 C-11.06336732 67.24114336 -16.82284568 67.38541425 -23.25 67.375 C-24.27472412 67.37338867 -25.29944824 67.37177734 -26.35522461 67.37011719 C-33.52580943 67.25351302 -39.64968543 66.57129015 -46 63 C-46.96099609 62.47986328 -46.96099609 62.47986328 -47.94140625 61.94921875 C-50.87011759 60.18927389 -51.89638594 59.31084219 -53 56 C-51.78515625 53.51953125 -51.78515625 53.51953125 -50.0625 50.8125 C-49.49660156 49.91144531 -48.93070313 49.01039063 -48.34765625 48.08203125 C-47.90292969 47.39496094 -47.45820312 46.70789063 -47 46 C-44.48738449 46.46529917 -42.81910946 47.11061011 -40.6171875 48.45703125 C-31.01813315 54.11617523 -20.389724 53.63866006 -10 51 C-10 48.69 -10 46.38 -10 44 C-15.00638182 41.14151747 -19.66420874 40.12746481 -25.25 39.125 C-35.39581709 37.12995972 -43.89028477 34.86894146 -50 26 C-52.13090422 21.73819156 -51.57843996 16.61617774 -51 12 C-48.45005398 5.47914568 -44.20444106 1.93588778 -38.05078125 -1.125 C-27.35324483 -5.68928221 -10.59178671 -4.24026302 0 0 Z " fill="#2C2A4F" transform="translate(746,464)"/>
<path d="M0 0 C1.45780884 0.00809692 1.45780884 0.00809692 2.94506836 0.01635742 C12.77271724 0.2232639 20.96913956 2.13253564 29.375 7.4375 C27.81798069 12.10855792 25.29052627 15.52455685 22.375 19.4375 C20.978522 18.98113464 19.5828492 18.52230512 18.1875 18.0625 C17.02154297 17.67964844 17.02154297 17.67964844 15.83203125 17.2890625 C13.375 16.4375 13.375 16.4375 10.9140625 15.3515625 C4.74226997 13.12971719 -2.69232565 13.78340885 -8.625 16.4375 C-9.89503323 17.49060277 -9.89503323 17.49060277 -9.8125 19.875 C-9.89339983 22.60484675 -9.89339983 22.60484675 -7.625 24.4375 C-5.18688465 25.13746556 -2.78186579 25.74865385 -0.3125 26.3125 C1.14243083 26.66590126 2.59685328 27.02140152 4.05078125 27.37890625 C5.14253662 27.64598389 5.14253662 27.64598389 6.25634766 27.91845703 C23.38515875 32.11479863 23.38515875 32.11479863 29.375 39.4375 C31.79822056 44.08200607 32.21330022 49.28544655 31.375 54.4375 C28.36866353 61.92649887 22.98019146 65.77604711 15.8828125 69.046875 C10.51550372 70.99384601 5.21455795 70.91397971 -0.4375 70.875 C-1.45392578 70.89498047 -2.47035156 70.91496094 -3.51757812 70.93554688 C-13.71355572 70.92904848 -22.04275524 67.77756341 -30.625 62.4375 C-29.99110765 58.93905614 -28.57322306 56.59663124 -26.5625 53.6875 C-26.01464844 52.88828125 -25.46679688 52.0890625 -24.90234375 51.265625 C-24.48082031 50.66234375 -24.05929687 50.0590625 -23.625 49.4375 C-23.01914063 49.77523437 -22.41328125 50.11296875 -21.7890625 50.4609375 C-13.41468549 54.9186828 -3.73204884 58.41421937 5.8046875 55.76171875 C8.01628292 55.03485484 10.19975413 54.26616509 12.375 53.4375 C12.79246608 50.56385209 12.79246608 50.56385209 12.375 47.4375 C7.27592751 43.15038173 -0.09370413 42.67354852 -6.43359375 41.41992188 C-14.77908431 39.6656657 -20.92855902 37.11047372 -26.625 30.4375 C-29.35865768 25.88140386 -29.28083593 20.5928685 -28.625 15.4375 C-25.44013242 8.81297543 -19.49514399 3.801993 -12.71508789 1.03735352 C-8.54329447 -0.15994778 -4.30994598 -0.04548463 0 0 Z " fill="#2D2B51" transform="translate(1057.625,460.5625)"/>
<path d="M0 0 C2.33984375 1.63671875 2.33984375 1.63671875 4 3 C3.54300722 8.02692063 1.00758252 11.14896261 -2 15 C-2.556875 14.80664062 -3.11375 14.61328125 -3.6875 14.4140625 C-6.11762341 13.58486498 -8.55540589 12.7854887 -11 12 C-11.65742187 11.78730469 -12.31484375 11.57460938 -12.9921875 11.35546875 C-19.04120368 9.61104292 -26.47142141 8.36003982 -32.328125 11.08203125 C-34.37607989 13.04125476 -34.37607989 13.04125476 -34.25 16.6875 C-34.12625 18.3271875 -34.12625 18.3271875 -34 20 C-32.70707031 20.23074219 -31.41414063 20.46148437 -30.08203125 20.69921875 C-1.76186426 25.93339004 -1.76186426 25.93339004 4 34 C6.94398118 39.48189599 7.88957909 43.88068783 6.56640625 50.0078125 C4.8367183 55.6588427 1.87792394 58.79479217 -3 62 C-10.08987927 65.67523021 -16.45813395 66.65062128 -24.375 66.5 C-25.38433594 66.48936523 -26.39367188 66.47873047 -27.43359375 66.46777344 C-37.87227643 66.2017554 -46.21061229 63.59324672 -55 58 C-54.36610765 54.50155614 -52.94822306 52.15913124 -50.9375 49.25 C-50.38964844 48.45078125 -49.84179688 47.6515625 -49.27734375 46.828125 C-48.85582031 46.22484375 -48.43429687 45.6215625 -48 45 C-47.31035156 45.33773437 -46.62070313 45.67546875 -45.91015625 46.0234375 C-34.1124684 51.6228888 -24.77442188 53.24429762 -12 50 C-12 47.69 -12 45.38 -12 43 C-16.37967392 40.57577682 -20.19768827 39.43052655 -25.125 38.625 C-34.14408222 36.98658928 -44.2954264 34.72877713 -50 27 C-52.92149447 21.76145819 -54.18361506 16.89834838 -53 11 C-49.9331669 3.86728968 -45.09539703 -0.1102383 -38 -3 C-26.32632783 -6.4037306 -10.94432445 -5.12105322 0 0 Z " fill="#2C2A50" transform="translate(1232,465)"/>
<path d="M0 0 C5.61 0 11.22 0 17 0 C17 22.44 17 44.88 17 68 C11.39 68 5.78 68 0 68 C0 45.56 0 23.12 0 0 Z " fill="#26254D" transform="translate(662,462)"/>
<path d="M0 0 C4.455 -0.061875 8.91 -0.12375 13.5 -0.1875 C14.88896484 -0.21481201 16.27792969 -0.24212402 17.70898438 -0.27026367 C25.99147209 -0.32582277 31.83143802 0.28137262 38.875 4.875 C42.20595258 8.20595258 42.86930641 10.80197545 43.375 15.4375 C42.92157117 19.74507387 41.77283283 21.70257718 39 25 C33.75480787 28.80276429 29.42537487 29.12468379 23.046875 29.09765625 C22.38665344 29.0962413 21.72643188 29.09482635 21.04620361 29.09336853 C18.94742206 29.08779245 16.84874905 29.07524447 14.75 29.0625 C13.32291821 29.0574819 11.89583475 29.05291954 10.46875 29.04882812 C6.97909168 29.03868377 3.48966668 29.01910401 0 29 C0 19.43 0 9.86 0 0 Z " fill="#F3F2F8" transform="translate(583,451)"/>
<path d="M0 0 C4.69720516 -0.11537895 9.38941583 -0.21471667 14.08691406 -0.2746582 C15.68148536 -0.29966413 17.27594365 -0.33368099 18.87011719 -0.37719727 C35.37295659 -0.81610257 35.37295659 -0.81610257 42 5 C43.86091735 8.7218347 43.5680311 12.94719381 43 17 C40.18368487 20.86237504 37.49495684 22.57872852 33 24 C30.39163626 24.16464931 27.89680502 24.23392915 25.29296875 24.1953125 C24.56757401 24.1924826 23.84217926 24.18965271 23.09480286 24.18673706 C20.79219632 24.17559799 18.48998773 24.15050566 16.1875 24.125 C14.62044835 24.11496206 13.05339057 24.10583763 11.48632812 24.09765625 C7.65727775 24.077386 3.82908104 24.0382271 0 24 C0 16.08 0 8.16 0 0 Z " fill="#F5F3FA" transform="translate(875,490)"/>
<path d="M0 0 C4.31288504 -0.08137519 8.62421469 -0.14068915 12.9375 -0.1875 C14.14986328 -0.21263672 15.36222656 -0.23777344 16.61132812 -0.26367188 C24.73691364 -0.32973355 31.59529835 0.20677456 38.5625 4.625 C40.75536323 8.24799142 40.6253557 11.86974377 40 16 C38.69816045 19.29097322 37.51105902 20.71032047 34.31640625 22.234375 C27.72917926 24.93208928 20.93737784 24.42939559 13.9375 24.25 C12.58140675 24.22989291 11.22528453 24.21164961 9.86914062 24.1953125 C6.57911625 24.14847941 3.28946251 24.07674702 0 24 C0 16.08 0 8.16 0 0 Z " fill="#F0EEF5" transform="translate(874,451)"/>
<path d="M0 0 C1.02802734 0.00322266 2.05605469 0.00644531 3.11523438 0.00976562 C4.72301758 0.02233398 4.72301758 0.02233398 6.36328125 0.03515625 C7.44673828 0.03966797 8.53019531 0.04417969 9.64648438 0.04882812 C12.3229721 0.06061882 14.99934902 0.07707562 17.67578125 0.09765625 C18.24244718 8.23615144 18.24244718 8.23615144 16.13671875 11.4375 C9.64934121 16.40629665 3.99120782 19.19310167 -4.32421875 18.09765625 C-7.82033546 16.71240246 -11.19445424 15.29230302 -13.32421875 12.09765625 C-13.82421875 9.22265625 -13.82421875 9.22265625 -13.32421875 6.09765625 C-9.23818202 1.12815212 -6.27199537 -0.03465191 0 0 Z " fill="#F0EEF6" transform="translate(979.32421875,500.90234375)"/>
<path d="M0 0 C3.80773268 1.73078758 6.69741775 3.69618811 9.0625 7.1875 C9.75 9.25 9.75 9.25 9.75 14.25 C-1.14 14.25 -12.03 14.25 -23.25 14.25 C-23.25 8.59243697 -23.25 8.59243697 -20 5.0625 C-19.39671875 4.38832031 -18.7934375 3.71414063 -18.171875 3.01953125 C-12.82490173 -1.90359657 -6.77774148 -1.56409419 0 0 Z " fill="#F1EFF8" transform="translate(1140.25,474.75)"/>
<path d="M0 0 C3.125 1.9375 3.125 1.9375 5 5 C5.68611853 8.16186288 5.69294147 10.83881249 5 14 C2.96757543 17.14697999 1.44705992 18.52651348 -2.125 19.6953125 C-5.40745118 20.30522742 -7.8684462 20.59988819 -10.87890625 19.00390625 C-13.05478435 17.23698837 -14.74093165 15.51813671 -16 13 C-16.39447548 8.81855989 -16.45035186 6.69053952 -14.125 3.125 C-10.04122926 -0.95877074 -5.52508467 -0.7372562 0 0 Z " fill="#2D2C51" transform="translate(676,431)"/>
<path d="M0 0 C0.99 0.33 1.98 0.66 3 1 C2.28457031 1.64324219 1.56914062 2.28648437 0.83203125 2.94921875 C-4.97708197 8.20400472 -10.67992305 13.55435581 -16.25 19.0625 C-16.82258545 19.62219482 -17.3951709 20.18188965 -17.98510742 20.75854492 C-19.36337215 22.13343 -20.68730084 23.56238269 -22 25 C-22 25.66 -22 26.32 -22 27 C-22.99 27 -23.98 27 -25 27 C-23.41568547 23.09148801 -20.73364905 20.47632644 -17.7734375 17.578125 C-17.26575836 17.07327576 -16.75807922 16.56842651 -16.23501587 16.04827881 C-14.61966158 14.44407904 -12.99747791 12.84699144 -11.375 11.25 C-10.27558302 10.16061893 -9.17661941 9.0707801 -8.078125 7.98046875 C-5.3906398 5.31498115 -2.69700979 2.65584857 0 0 Z " fill="#312EA3" transform="translate(358,541)"/>
<path d="M0 0 C0.99 0.33 1.98 0.66 3 1 C-0.465 3.97 -0.465 3.97 -4 7 C-4.66 6.67 -5.32 6.34 -6 6 C-4.02 4.02 -2.04 2.04 0 0 Z " fill="#363DC1" transform="translate(358,541)"/>
<path d="M0 0 C0.66 0 1.32 0 2 0 C1 4 1 4 0 8 C-0.66 8 -1.32 8 -2 8 C-1.125 2.25 -1.125 2.25 0 0 Z " fill="#323157" transform="translate(951,500)"/>
<path d="M0 0 C2.97 0.33 5.94 0.66 9 1 C7 3 7 3 3.875 3.125 C2.451875 3.063125 2.451875 3.063125 1 3 C0.67 2.01 0.34 1.02 0 0 Z " fill="#3E3C5D" transform="translate(1138,461)"/>
</svg>
